{
	"asset":{
		"generator":"Khronos glTF Blender I/O v4.2.83",
		"version":"2.0"
	},
	"scene":0,
	"scenes":[
		{
			"name":"Scene",
			"nodes":[
				0
			]
		}
	],
	"nodes":[
		{
			"mesh":0,
			"name":"Cube",
			"scale":[
				35.64706039428711,
				35.64706039428711,
				35.64706039428711
			]
		}
	],
	"meshes":[
		{
			"name":"Cube.001",
			"primitives":[
				{
					"attributes":{
						"POSITION":0,
						"NORMAL":1,
						"TEXCOORD_0":2
					},
					"indices":3
				}
			]
		}
	],
	"accessors":[
		{
			"bufferView":0,
			"componentType":5126,
			"count":24576,
			"max":[
				1.299079179763794,
				1.1512436866760254,
				1.9902870655059814
			],
			"min":[
				-1.4155277013778687,
				-1.4435334205627441,
				-1.8512167930603027
			],
			"type":"VEC3"
		},
		{
			"bufferView":1,
			"componentType":5126,
			"count":24576,
			"type":"VEC3"
		},
		{
			"bufferView":2,
			"componentType":5126,
			"count":24576,
			"type":"VEC2"
		},
		{
			"bufferView":3,
			"componentType":5123,
			"count":36864,
			"type":"SCALAR"
		}
	],
	"bufferViews":[
		{
			"buffer":0,
			"byteLength":294912,
			"byteOffset":0,
			"target":34962
		},
		{
			"buffer":0,
			"byteLength":294912,
			"byteOffset":294912,
			"target":34962
		},
		{
			"buffer":0,
			"byteLength":196608,
			"byteOffset":589824,
			"target":34962
		},
		{
			"buffer":0,
			"byteLength":73728,
			"byteOffset":786432,
			"target":34963
		}
	],
	"buffers":[
		{
			"byteLength":860160,
			"uri":"untitled.bin"
		}
	]
}
